# xmcd CD database file
#
# Track frame offsets:
#	150
#	2404
#	22598
#	46279
#	69055
#	71447
#	92958
#	113845
#	133180
#	152976
#	177273
#	196583
#	218028
#	223585
#	231326
#
# Disc length: 3154 seconds
#
# Revision: 0
# Processed by: cddbd v1.5.2PL0 Copyright (c) Steve Scherf et al.
# Submitted via: CDex 1.50
#
DISCID=c10c500f
DTITLE=Dubuc - Urban Behaviors
DYEAR=1900
DGENRE=Jazz
TTITLE0=Have a Nice Day
TTITLE1=Ok, Let's Do It
TTITLE2=Take Me There
TTITLE3=The Man With the Black Suitcase
TTITLE4=A Few Seconds Of Nothing
TTITLE5=Urban Behaviors
TTITLE6=I Feel It
TTITLE7=Error Messages
TTITLE8=The Barnaby Street Enigma
TTITLE9=Good Evening Mr. Taylor
TTITLE10=Unknown Origin
TTITLE11=Underground Path
TTITLE12=The Bridge
TTITLE13=Lost In The Middle Of Nowhere
TTITLE14=The End
EXTD=
EXTT0=
EXTT1=
EXTT2=
EXTT3=
EXTT4=
EXTT5=
EXTT6=
EXTT7=
EXTT8=
EXTT9=
EXTT10=
EXTT11=
EXTT12=
EXTT13=
EXTT14=
PLAYORDER=
